<svg width="97" height="32" viewBox="0 0 97 32" fill="none" xmlns="http://www.w3.org/2000/svg">
<g clip-path="url(#clip0_3524_69586)">
<path d="M18.33 9.5673C18.33 10.9878 17.1619 12.1424 15.7249 12.1424H3.60517C2.16808 12.1424 1 10.9878 1 9.5673C1 8.14679 2.16808 6.99219 3.60517 6.99219H15.7249C17.1619 6.99219 18.33 8.14679 18.33 9.5673Z" fill="white"/>
<path d="M18.33 9.5673C18.33 10.9878 17.1619 12.1424 15.7249 12.1424H3.60517C2.16808 12.1424 1 10.9878 1 9.5673C1 8.14679 2.16808 6.99219 3.60517 6.99219H15.7249C17.1619 6.99219 18.33 8.14679 18.33 9.5673Z" fill="url(#paint0_linear_3524_69586)"/>
<path d="M17.5936 7.7323C18.613 8.73996 18.613 10.3704 17.5936 11.3711L5.59421 23.239C4.5748 24.2466 2.92533 24.2466 1.913 23.239C0.893584 22.2313 0.893584 20.6009 1.913 19.6002L13.9123 7.7323C14.9318 6.72465 16.5812 6.72465 17.5936 7.7323Z" fill="white"/>
<path d="M17.5936 7.7323C18.613 8.73996 18.613 10.3704 17.5936 11.3711L5.59421 23.239C4.5748 24.2466 2.92533 24.2466 1.913 23.239C0.893584 22.2313 0.893584 20.6009 1.913 19.6002L13.9123 7.7323C14.9318 6.72465 16.5812 6.72465 17.5936 7.7323Z" fill="url(#paint1_linear_3524_69586)"/>
<path d="M15.9083 18.8438C17.3454 18.8438 18.5135 19.9984 18.5135 21.4189C18.5135 22.8394 17.3454 23.994 15.9083 23.994H15.3278C13.8907 23.994 12.7227 22.8394 12.7227 21.4189C12.7227 19.9984 13.8907 18.8438 15.3278 18.8438H15.9083Z" fill="white"/>
<path d="M81.8241 16.2972L75.7218 30.4814C75.3466 31.3561 74.4829 31.9159 73.5272 31.9159H73.2299C71.4954 31.9159 70.3415 30.1455 71.0494 28.585L73.1945 23.8826C73.329 23.5817 73.3361 23.2389 73.2086 22.938L67.9346 10.5522C67.2691 8.99875 68.4301 7.27734 70.1362 7.27734H70.6601C71.6583 7.27734 72.5573 7.89313 72.8971 8.81682L75.6651 16.2203C75.8563 16.7381 76.5925 16.7311 76.7837 16.2203L78.1641 12.4976L79.2331 9.81047L81.8241 16.2972Z" fill="white"/>
<path d="M25.5429 5.54291C24.6367 5.54291 23.8863 5.284 23.2987 4.76618C22.7324 4.22736 22.4492 3.56959 22.4492 2.79286C22.4492 2.01612 22.7324 1.33736 23.2987 0.819533C23.8863 0.280719 24.6296 0.0078125 25.5429 0.0078125C26.4561 0.0078125 27.1569 0.280719 27.7233 0.819533C28.3108 1.33736 28.6011 1.99513 28.6011 2.79286C28.6011 3.59058 28.3108 4.22736 27.7233 4.76618C27.1569 5.284 26.4278 5.54291 25.5429 5.54291ZM25.5216 7.27831C26.9516 7.27831 28.1126 8.42592 28.1126 9.83943V21.4274C28.1126 22.841 26.9516 23.9886 25.5216 23.9886C24.0916 23.9886 22.9306 22.841 22.9306 21.4274V9.83243C22.9306 8.41892 24.0916 7.27132 25.5216 7.27132V7.27831Z" fill="white"/>
<path fill-rule="evenodd" clip-rule="evenodd" d="M40.6507 7.02653V7.01953L35.5324 7.27844H31.5538C30.8954 7.27844 30.3574 7.81026 30.3574 8.46104V25.7801C30.3574 26.4309 30.8954 26.9627 31.5538 26.9627H34.343C35.0014 26.9627 35.5394 26.4309 35.5394 25.7801V25.2903C35.5394 24.6325 36.0845 24.1007 36.7571 24.1077L39.7445 24.1636C40.0702 24.2056 40.4029 24.2266 40.7498 24.2266C42.1444 24.2266 43.4045 23.8767 44.5372 23.177C45.6699 22.4562 46.5548 21.4486 47.199 20.154C47.8644 18.8385 48.1972 17.32 48.1972 15.6056C48.1972 13.8912 47.8644 12.3797 47.199 11.0851C46.5548 9.79058 45.6628 8.78992 44.5372 8.09016C43.4045 7.3904 42.1444 7.04052 40.7498 7.04052C40.7215 7.04052 40.6861 7.04052 40.6577 7.04052C40.6577 7.04052 40.6507 7.04052 40.6577 7.03353L40.6507 7.02653ZM42.9231 15.5986C42.9231 14.318 42.5621 13.3244 41.8329 12.6036C41.125 11.8619 40.2471 11.498 39.1994 11.498C38.1517 11.498 37.288 11.8689 36.5659 12.6036C35.858 13.3454 35.504 14.353 35.504 15.6266C35.504 16.9001 35.858 17.9148 36.5659 18.6495C37.2951 19.3913 38.1729 19.7552 39.1994 19.7552C40.2259 19.7552 41.1108 19.3843 41.8329 18.6495C42.5621 17.8938 42.9231 16.8721 42.9231 15.5986Z" fill="white"/>
<path fill-rule="evenodd" clip-rule="evenodd" d="M59.637 7.02653V7.01953L54.5187 7.27844H50.5401C49.8818 7.27844 49.3438 7.81026 49.3438 8.46104V25.7801C49.3438 26.4309 49.8818 26.9627 50.5401 26.9627H53.3294C53.9877 26.9627 54.5258 26.4309 54.5258 25.7801V25.2903C54.5258 24.6325 55.0709 24.1007 55.7434 24.1077L58.7308 24.1636C59.0565 24.2056 59.3892 24.2266 59.7361 24.2266C61.1307 24.2266 62.3908 23.8767 63.5235 23.177C64.6562 22.4562 65.5411 21.4486 66.1853 20.154C66.8508 18.8385 67.1835 17.32 67.1835 15.6056C67.1835 13.8912 66.8508 12.3797 66.1853 11.0851C65.5411 9.79058 64.6491 8.78992 63.5235 8.09016C62.3908 7.3904 61.1307 7.04052 59.7361 7.04052C59.7078 7.04052 59.6724 7.04052 59.6441 7.04052C59.6441 7.04052 59.637 7.04052 59.6441 7.03353L59.637 7.02653ZM61.9165 15.5986C61.9165 14.318 61.5555 13.3244 60.8263 12.6036C60.1184 11.8619 59.2406 11.498 58.1928 11.498C57.1451 11.498 56.2814 11.8689 55.5593 12.6036C54.8514 13.3454 54.4974 14.353 54.4974 15.6266C54.4974 16.9001 54.8514 17.9148 55.5593 18.6495C56.2885 19.3913 57.1663 19.7552 58.1928 19.7552C59.2193 19.7552 60.1042 19.3843 60.8263 18.6495C61.5555 17.8938 61.9165 16.8721 61.9165 15.5986Z" fill="white"/>
<path d="M95.4447 7.16797C97.2711 7.16797 98.51 9.01533 97.795 10.6738L89.2928 30.47C88.8964 31.3936 87.9761 32.0024 86.9566 32.0024C85.116 32.0024 83.8842 30.1201 84.6417 28.4616L86.6593 24.0252C86.8292 23.6473 86.8363 23.2205 86.6735 22.8356L81.5269 10.7437C80.8048 9.04332 82.0649 7.16797 83.9267 7.16797H84.0117C85.1019 7.16797 86.0788 7.83974 86.454 8.85439L89.0025 15.677C89.2574 16.3698 90.2556 16.3698 90.5104 15.677L93.0448 8.8334C93.4129 7.83974 94.3686 7.17497 95.4447 7.17497V7.16797Z" fill="white"/>
</g>
<defs>
<linearGradient id="paint0_linear_3524_69586" x1="18.8185" y1="6.50236" x2="1.77739" y2="12.3395" gradientUnits="userSpaceOnUse">
<stop stop-color="#FBAFA3" stop-opacity="0.47"/>
<stop offset="1" stop-color="#D54029" stop-opacity="0"/>
</linearGradient>
<linearGradient id="paint1_linear_3524_69586" x1="17.3959" y1="4.61151" x2="2.48949" y2="26.3322" gradientUnits="userSpaceOnUse">
<stop offset="0.43" stop-color="#D54029" stop-opacity="0"/>
<stop offset="1" stop-color="#FBAFA3" stop-opacity="0.47"/>
</linearGradient>
<clipPath id="clip0_3524_69586">
<rect width="97" height="32" fill="white"/>
</clipPath>
</defs>
</svg>
